<?xml version="1.0" encoding="UTF-8"?>
<svg id="Layer_1" xmlns="http://www.w3.org/2000/svg" version="1.1" viewBox="0 0 36 36">
  <!-- Generator: Adobe Illustrator 29.5.1, SVG Export Plug-In . SVG Version: 2.1.0 Build 141)  -->
  <defs>
    <style>
      .st0 {
        stroke: #5f6368;
      }

      .st0, .st1, .st2, .st3, .st4, .st5 {
        stroke-miterlimit: 10;
      }

      .st0, .st2, .st3, .st4 {
        fill: none;
      }

      .st0, .st2, .st4 {
        stroke-width: 3px;
      }

      .st1, .st4, .st5 {
        stroke: #3F7CE0;
      }

      .st1, .st5 {
        fill:#3F7CE0;
      }

      .st2, .st3 {
        stroke:#3F7CE0;
      }

      .st3 {
        stroke-width: .1px;
      }

      .st5 {
        stroke-width: 0px;
      }
    </style>
  </defs>
  <circle class="st4" cx="12.7" cy="14.3" r="10.4"/>
  <path class="st4" d="M20.8,22.1l11.7,11.7s-11.7-11.7-11.7-11.7Z"/>
  <circle class="st1" cx="32.7" cy="33.9" r="1"/>
  <path class="st2" d="M28.2,8.8"/>
  <path class="st3" d="M17.6,15.3"/>
  <path class="st0" d="M23.1,14.3c0-.6,0-1.3-.1-2-.7-3.6-3.4-5.9-4.6-6.7"/>
  <path class="st5" d="M20.6,9.9c-1.1-.2-2.1-.2-2.1-.3,0,0,.1,0,.5,0,.1,0,.3,0,.6-.1,1.5-.3,2.3-.5,2.9-.7.5-.2.9-.4,1.4-.8.5-.4.7-.8,1-1.3,0,0,.8-1.4,1.1-3,0-.2,0-.4.1-.6,0-.5,0-.6.1-.6,0,0,.1.8.3,1.8.3,1.4.9,2.4,1,2.5.3.4.6.9,1.1,1.3.5.4.9.5,1.6.8.7.3,1.1.4,1.8.5.5,0,1.1.2,1.6.2,0,0,.2,0,.2,0,0,0-.2,0-.5.1-1,.2-.6.1-1.5.3,0,0-.7.1-1.6.4-.5.2-1.8.7-2.7,2-.7.9-.9,2-1,2.4-.3,1.3-.3,1.4-.3,1.4,0,.3,0,.6-.1.6,0,0,0-.1,0-.4,0,0,0-.2,0-.6,0,0,0-.3-.2-.7-.6-2.4-1.4-3.2-1.4-3.2-.8-.9-1.8-1.3-2.4-1.6-.6-.3-1.2-.4-1.5-.4Z"/>
</svg>