<?xml version="1.0" encoding="UTF-8"?>
<!DOCTYPE svg PUBLIC "-//W3C//DTD SVG 1.1//EN" "http://www.w3.org/Graphics/SVG/1.1/DTD/svg11.dtd">
<!-- Creator: CorelDRAW 2019 (64-Bit) -->
<svg xmlns="http://www.w3.org/2000/svg" xml:space="preserve" width="7.47698in" height="2.45881in" version="1.1" style="shape-rendering:geometricPrecision; text-rendering:geometricPrecision; image-rendering:optimizeQuality; fill-rule:evenodd; clip-rule:evenodd"
viewBox="0 0 7434.32 2444.78"
 xmlns:xlink="http://www.w3.org/1999/xlink">
 <defs>
  <style type="text/css">
   <![CDATA[
    .fil0 {fill:white}
   ]]>
  </style>
 </defs>
 <g id="Layer_x0020_1">
  <metadata id="CorelCorpID_0Corel-Layer"/>
  <g id="_2533198740016">
   <path class="fil0" d="M1831.54 876.15c-17.04,-5.77 -851.88,-5.77 -866.79,0 -2.13,5.04 0,221.21 0,249.31l553.72 0c29.82,0 48.98,-6.48 66.02,13.69 -12.78,26.66 -8.52,55.48 -19.17,82.86 -10.65,23.06 -12.78,57.64 -25.56,79.98 -6.39,10.81 -17.04,36.03 -23.42,50.44 -53.24,112.41 -202.32,216.17 -317.32,253.63 -8.52,2.16 -14.91,7.21 -23.42,9.37l-57.5 14.41c-34.07,5.77 -57.5,12.25 -93.71,12.97 -36.2,0 -53.24,7.92 -100.09,0.72 -10.65,-2.16 -23.42,0 -36.21,-0.72 -10.65,-0.72 -17.04,-2.89 -27.68,-5.05 -14.91,-4.32 -14.91,-3.6 -31.95,-5.04 -36.21,-2.89 -149.08,-43.96 -183.15,-64.13 -8.52,-5.05 -2.13,-1.44 -10.65,-5.77l-57.5 -33.86c-76.67,-59.09 -119.26,-95.83 -178.89,-177.97 -53.24,-73.5 -85.19,-159.24 -108.61,-245.7 -4.26,-13.69 -4.26,-14.41 -4.26,-29.54 0,-33.14 -17.04,-56.21 -12.78,-165.73 0,-12.25 2.13,-15.85 2.13,-29.54l17.04 -93.67c6.39,-18.01 8.52,-36.75 14.91,-53.32 6.39,-10.81 6.39,-17.29 8.52,-28.1 10.65,-35.31 36.21,-89.35 59.63,-120.33l12.78 -20.9c31.94,-51.16 72.41,-92.23 115,-135.46 29.82,-28.1 66.02,-54.04 102.22,-74.22 17.04,-9.37 27.69,-18.01 46.85,-25.94 8.52,-3.61 4.26,-0.72 10.65,-5.77 44.72,-25.22 97.97,-41.07 146.95,-49.71 6.39,-1.44 19.17,-5.77 27.68,-7.93l132.04 -11.53 127.78 15.13c21.3,6.49 36.21,3.6 57.5,14.41 12.78,5.76 14.91,2.88 27.69,6.48 38.34,12.97 87.32,34.59 121.39,56.2 14.91,9.37 29.82,19.46 44.72,28.82 17.04,12.25 66.02,57.65 80.93,61.97 23.43,-15.85 85.19,-83.58 108.61,-107.36 53.25,-54.04 78.8,-62.69 51.12,-85.74 -8.52,-7.93 -21.3,-20.18 -29.82,-26.66 -19.17,-14.41 -42.59,-35.31 -61.76,-47.55l-174.64 -98c-25.56,-7.92 -53.24,-23.06 -80.93,-28.82 -17.04,-3.61 -27.69,-9.37 -42.59,-12.25l-138.43 -23.78c-53.24,-9.37 -155.47,-8.65 -208.71,2.89 -12.78,2.16 -36.21,5.04 -48.98,5.76 -23.43,2.16 -25.56,2.88 -44.72,8.65 -14.91,5.04 -31.95,4.32 -46.85,9.37 -55.37,19.46 -106.49,33.14 -159.73,59.8 -8.52,4.33 -25.55,13.69 -36.21,17.29 -8.52,4.33 -6.39,1.44 -17.04,8.65l-36.21 20.18c-10.65,5.04 -8.52,5.76 -14.91,10.81 -10.65,7.21 -25.56,14.41 -34.08,22.34 -53.24,38.91 -102.22,78.54 -149.08,123.93 -44.72,46.11 -110.74,128.98 -140.56,186.62l-55.37 111.69c-6.39,23.06 -38.34,90.07 -40.46,120.33 -2.13,20.18 -6.39,27.38 -12.78,44.68 -2.13,11.53 -4.26,35.31 -4.26,47.55 -2.13,15.13 -8.52,33.14 -10.65,46.84l4.26 208.96c12.78,47.55 8.52,81.42 34.07,154.91l19.17 63.41c2.13,6.49 6.39,7.93 8.52,17.29 29.81,79.98 76.67,158.52 129.91,225.53 25.55,32.42 72.41,90.07 104.35,113.13 10.65,7.93 17.04,18.01 27.68,25.94 40.46,32.42 83.06,64.13 127.78,91.51 21.3,14.41 44.72,29.54 70.28,39.63 6.39,2.88 10.65,7.21 17.04,9.37l97.97 41.07c46.85,17.29 125.65,36.03 174.64,43.23l206.58 6.49 100.1 -7.21c42.59,-7.21 142.69,-26.66 176.76,-43.23l146.95 -70.61 95.84 -68.45c66.02,-53.32 138.43,-125.38 178.89,-203.2 6.39,-9.37 8.52,-9.37 12.78,-15.85l27.68 -54.76c23.43,-52.6 40.46,-108.08 55.37,-162.85 4.26,-15.85 4.26,-28.82 8.52,-44.67 8.52,-33.14 21.3,-159.96 21.3,-197.43 0,-23.78 -8.52,-130.42 -14.91,-149.87z"/>
   <path class="fil0" d="M4868.48 1294.79c0,-22.34 4.26,-10.81 4.26,-46.84 0,-36.75 12.78,-72.06 25.56,-106.64 19.17,-60.53 63.89,-113.13 110.74,-154.2 8.52,-6.48 44.72,-32.42 53.24,-36.03 10.65,-4.32 19.17,-10.09 29.82,-12.97 14.91,-3.61 23.42,-9.37 34.08,-12.97l78.8 -11.53c72.41,0 31.95,2.16 76.67,9.37 6.39,0.72 10.65,0 17.04,1.44 10.65,2.89 10.65,4.33 17.04,7.21 27.68,13.69 51.11,18.01 87.31,47.56 44.72,36.03 74.54,72.05 100.1,123.21 4.26,10.81 8.52,23.78 12.78,32.42l21.3 69.17c4.26,25.94 10.65,93.67 6.39,121.77 -6.39,28.82 -4.26,51.88 -12.78,74.22 -12.78,30.26 -4.26,38.91 -38.34,96.55 -10.65,20.18 -23.42,35.31 -36.2,52.6 -34.08,42.51 -76.67,72.06 -125.65,92.95 -34.08,14.41 -78.8,20.17 -117.13,20.17 -102.22,0 -172.5,-36.03 -244.91,-108.08 -21.3,-20.18 -61.76,-83.58 -70.28,-110.24 -2.13,-11.53 -8.52,-19.46 -10.65,-30.98 -19.17,-79.26 -10.65,-33.14 -14.91,-98.72 0,-10.09 -4.26,-10.09 -4.26,-19.45zm649.56 464.03c17.04,30.26 4.26,114.57 4.26,152.03 0,17.29 0,19.46 -4.26,36.03 -10.65,36.03 -10.65,58.37 -29.82,95.84 -27.68,54.76 -63.89,100.15 -117.13,128.26 -68.15,34.59 -57.5,20.9 -89.45,33.86 -17.04,7.21 -17.04,2.88 -34.08,5.04 -74.54,7.93 -138.43,2.89 -206.58,-36.75 -74.54,-43.95 -117.13,-96.55 -155.47,-172.21 -27.68,0 -83.05,31.7 -112.87,42.51 -12.78,5.04 -14.91,5.76 -27.69,12.25 -10.65,5.76 -17.04,2.88 -29.81,10.81 -10.65,7.93 -40.46,16.57 -55.37,23.78 2.13,54.76 117.13,191.66 168.24,229.85 34.08,25.94 100.09,69.17 138.43,82.86 48.98,16.57 29.82,16.57 97.97,29.54 27.69,5.04 42.59,12.25 89.45,12.25l146.95 -3.61 80.93 -17.29c34.08,-13.69 57.5,-13.69 106.48,-41.79 42.59,-24.5 44.72,-25.94 89.45,-60.53 76.67,-60.53 91.58,-110.24 129.91,-170.77 6.39,-10.09 4.26,-7.21 6.39,-17.29 4.26,-10.09 6.39,-10.09 10.65,-17.29 19.17,-45.4 27.69,-109.53 40.46,-157.8 17.04,-65.57 8.52,-781.79 8.52,-839.43 0,-40.35 6.39,-386.93 -4.26,-396.3 -10.65,-10.09 -232.14,-5.04 -240.65,-2.16 -10.65,27.38 4.26,63.41 -6.39,91.51 -14.91,5.04 -17.04,-4.33 -29.82,-15.13 -29.81,-29.54 -53.24,-46.83 -89.45,-65.57 -38.33,-19.46 -74.54,-34.59 -115,-40.35 -57.5,-8.65 -66.02,-18.74 -140.56,-9.37 -17.04,1.44 -27.69,4.33 -42.59,6.49 -51.11,7.93 -74.54,15.13 -123.52,32.42 -85.18,30.98 -181.02,112.41 -236.4,178.7l-61.76 92.95c-17.04,30.98 -19.17,43.95 -34.08,72.78 -8.52,18.74 -6.39,24.5 -12.78,39.63 -23.42,59.08 -23.42,118.89 -29.82,180.14l8.52 118.17c2.13,5.76 4.26,13.69 6.39,19.46 4.26,15.13 4.26,30.98 8.52,44.67l38.34 91.51c4.26,11.53 2.13,7.92 8.52,18.01 59.63,102.32 119.26,178.7 227.88,242.1 53.24,30.26 125.65,59.09 185.28,70.61 53.24,10.81 115,7.93 168.24,2.16 61.76,-6.48 53.25,-10.81 104.36,-26.66 19.17,-5.77 21.3,-9.37 38.33,-15.85 19.17,-9.37 42.59,-26.66 61.76,-41.07 17.04,-14.41 38.34,-39.63 55.37,-48.99z"/>
   <path class="fil0" d="M3543.81 1311.36l2.13 -82.86c2.13,-12.97 6.39,-23.78 8.52,-35.31 8.52,-30.26 17.04,-64.85 36.21,-96.55 25.55,-43.95 61.76,-89.35 104.35,-118.17 63.89,-43.24 123.52,-64.85 202.32,-64.85 19.17,0 23.43,-1.44 40.46,3.61 12.78,4.32 23.43,5.04 36.21,6.48 17.04,2.16 51.11,18.74 63.89,25.22 29.82,12.25 85.19,50.44 104.35,75.66 12.78,17.29 27.69,30.26 38.34,50.44 21.3,37.47 27.69,43.23 42.59,90.07 14.91,42.51 17.04,72.06 17.04,119.61 0,27.38 0,56.92 -4.26,82.14 -25.55,116.73 -83.05,197.43 -189.54,259.4 -31.94,18.74 -100.09,36.75 -140.56,36.75 -25.55,0 -57.5,-0.72 -83.05,-5.77l-80.93 -28.1 -66.02 -45.39c-6.39,-4.32 -6.39,-5.77 -12.78,-10.81 -4.26,-2.88 -2.13,-1.44 -6.39,-4.32 -34.08,-33.87 -44.72,-53.32 -78.8,-112.41 -8.52,-12.97 -29.81,-92.23 -31.94,-101.6 0,-7.2 2.13,-15.85 0,-23.78 0,-10.09 -2.13,-10.09 -2.13,-19.46zm321.58 -629.76c-6.39,1.44 -27.68,-0.72 -36.2,0.72 -8.52,1.44 -21.3,4.33 -29.82,5.77l-95.84 18.74 -106.48 43.95 -70.28 46.11c-85.19,64.13 -166.11,155.64 -200.19,257.24 -4.26,8.65 -8.52,17.29 -10.65,25.94 -4.26,12.25 -4.26,17.29 -10.65,30.26 -6.39,16.57 -6.39,42.51 -12.78,61.97 -10.65,34.59 -8.52,172.21 -4.26,218.33l12.78 62.69c6.39,30.26 29.82,80.7 42.59,110.96l27.69 48.28c38.34,66.29 127.78,159.24 189.54,192.38l23.42 13.69c25.56,16.57 25.56,13.69 48.98,25.22 8.52,3.6 8.52,3.6 14.91,5.76 14.91,5.05 48.98,20.9 70.28,25.22l61.76 14.41c93.71,16.57 140.56,4.32 210.84,2.16 36.21,-1.44 136.3,-36.03 174.64,-54.04 74.54,-37.47 112.87,-67.01 176.77,-128.98 38.34,-39.63 66.02,-86.46 93.71,-134.02 10.65,-17.29 38.34,-91.51 44.72,-108.8 17.04,-52.6 27.68,-185.9 19.17,-241.38 -6.39,-31.7 6.39,-3.6 -10.65,-66.29 -6.39,-25.94 -6.39,-52.6 -25.56,-92.23l-48.98 -102.32c-46.85,-78.54 -132.04,-161.4 -212.97,-203.91 -12.78,-5.77 -4.26,-4.33 -25.56,-13.69 -17.04,-7.2 -36.21,-18.01 -53.24,-23.78l-57.5 -18.01c-10.65,-1.44 -19.17,-6.48 -27.69,-9.36 -14.91,-3.61 -21.3,-2.16 -36.21,-4.33 -21.3,-3.6 -44.72,-6.48 -66.02,-10.09 -21.3,-3.6 -48.98,-2.88 -70.28,1.44z"/>
   <path class="fil0" d="M2217.01 1314.24l4.26 -89.35c0,-13.69 6.39,-21.62 8.52,-33.86 6.39,-25.22 6.39,-35.31 21.3,-67.73l31.94 -56.92c21.3,-30.26 57.5,-69.17 87.32,-89.35l42.59 -25.22c25.56,-8.65 36.21,-21.62 83.06,-28.82 12.78,-2.88 21.3,-5.04 34.08,-7.92 31.94,-7.93 89.45,3.6 121.39,9.36 17.04,2.89 46.85,18.01 63.89,25.22 66.02,25.94 149.08,117.45 170.37,183.74 4.26,11.53 8.52,20.9 12.78,31.7 17.04,51.16 23.42,149.15 10.65,201.03l-21.3 69.17c-10.65,36.75 -38.33,82.14 -66.02,112.41 -66.02,72.78 -183.15,129.7 -281.12,113.84 -14.91,-2.16 -27.69,-1.44 -40.46,-3.6l-95.84 -36.03c-34.08,-18.74 -51.11,-33.15 -76.67,-58.37 -14.91,-12.25 -29.81,-33.86 -40.46,-49.72l-34.08 -56.2c-8.52,-13.69 -17.04,-50.44 -21.3,-67.01 -14.91,-52.6 -6.39,-3.61 -10.65,-56.21 0,-10.09 -4.26,-10.81 -4.26,-20.18zm317.32 -632.64c-4.26,1.44 -23.43,-0.72 -34.08,1.44 -10.65,1.44 -19.17,3.61 -29.82,5.77 -27.68,4.32 -38.33,3.6 -63.89,12.25 -12.78,4.33 -19.17,2.88 -29.82,6.49 -12.78,3.6 -17.04,7.93 -29.81,11.53 -31.95,7.93 -87.32,41.79 -112.88,54.76 -55.37,26.66 -146.95,123.21 -183.15,181.58l-51.11 100.88c-25.55,72.78 -17.04,45.39 -34.07,118.17 -8.52,34.59 -8.52,175.09 -2.13,219.05 0,8.65 4.26,20.9 6.39,28.82 10.65,44.67 0,10.09 17.04,60.52 4.26,16.57 0,10.81 8.52,30.26 6.39,9.37 6.39,18.01 10.65,26.66 4.26,10.81 8.52,15.85 12.78,26.66l27.68 49c8.52,18.01 19.17,29.54 31.95,44.67 21.3,29.54 61.76,73.5 89.45,98 23.42,18.01 91.58,64.85 117.13,75.66 25.55,10.81 87.31,37.47 110.74,41.79 10.65,2.16 21.3,2.16 29.82,6.48 31.94,11.53 66.02,12.25 104.35,12.25 40.46,0.72 0,5.04 68.15,0 23.43,-1.44 48.98,-0.72 70.28,-3.61 23.42,-2.16 93.71,-21.62 121.39,-31.7 17.04,-6.48 36.21,-17.29 51.11,-23.78 10.65,-4.33 14.91,-7.21 25.56,-12.25l23.42 -14.41c17.04,-10.09 29.82,-20.18 46.85,-30.26 53.25,-36.03 110.75,-101.59 146.95,-157.8l59.63 -128.26c6.39,-24.5 8.52,-15.85 17.04,-60.52 17.04,-90.07 14.91,-72.06 14.91,-176.53l-19.17 -133.3c-10.65,-40.35 -27.68,-76.38 -40.46,-110.96 -27.68,-61.25 -83.05,-128.26 -134.17,-172.93 -36.2,-33.14 -108.61,-87.91 -159.73,-104.48 -23.42,-7.92 -23.42,-17.29 -85.19,-30.26 -12.78,-2.16 -17.04,-5.76 -27.68,-8.64l-104.36 -12.97c-31.94,-2.16 -36.2,-7.2 -70.28,0z"/>
   <path class="fil0" d="M7123.82 1046.92c-6.39,3.6 -21.3,9.37 -31.94,14.41l-83.06 33.15c-12.78,5.04 -6.39,4.32 -17.04,9.36l-170.38 69.17c-8.52,3.6 -8.52,0.72 -17.04,5.77 -6.39,3.6 -6.39,6.48 -17.04,9.36 -4.26,1.44 -12.78,2.89 -17.04,5.05 -6.39,3.6 -6.39,5.04 -14.91,7.93l-172.51 69.89 -10.65 -6.48c0,-19.46 0,-38.91 6.39,-57.65 4.26,-14.41 2.13,-11.53 4.26,-28.1 6.39,-56.21 61.76,-152.04 108.61,-185.9 46.85,-33.14 19.17,-17.29 70.28,-46.84 2.13,-2.16 6.39,-4.32 10.65,-5.76 55.37,-26.66 100.09,-34.59 163.98,-30.26 19.17,1.44 36.21,9.37 53.25,13.69 25.55,5.77 66.02,28.1 85.18,45.4 38.34,35.31 21.3,20.18 44.72,53.32 8.52,10.09 8.52,12.97 4.26,24.5zm298.16 579.32c-38.34,-18.74 -176.77,-123.93 -200.19,-126.1 -10.65,7.21 -42.59,47.56 -55.38,60.53 -21.3,21.62 -44.72,46.11 -74.54,58.36l-51.11 25.22c-10.65,2.88 -10.65,0.72 -23.43,5.76 -42.59,18.01 -112.87,12.25 -161.85,9.37 -19.17,-1.44 -31.95,-10.09 -46.85,-12.97 -27.69,-5.77 -55.38,-23.78 -80.93,-40.35 -31.95,-23.06 -102.22,-90.79 -102.22,-135.46l87.32 -36.03c17.04,-4.33 17.04,-9.37 29.81,-12.97 17.04,-5.77 42.59,-16.57 57.5,-24.5 8.52,-3.6 6.39,-2.16 14.91,-5.04l249.17 -103.04c10.65,-6.49 19.17,-7.21 29.82,-12.25 8.52,-4.33 2.13,-2.16 14.91,-6.49l306.68 -126.82c36.2,-11.53 10.65,-37.47 0,-64.85 -8.52,-15.85 2.13,0.72 -12.78,-30.26 -2.13,-4.32 -4.26,-13.69 -6.39,-17.29l-42.59 -82.14c-38.33,-56.93 -59.63,-87.91 -115,-135.46 -70.28,-62.69 -119.26,-89.35 -212.97,-118.17l-70.28 -12.25c-48.98,-9.36 -102.22,-5.04 -151.21,3.61 -29.82,5.76 -40.46,4.32 -70.28,14.41 -10.65,4.33 -19.17,3.61 -29.82,7.93 -59.63,24.5 -78.8,29.54 -140.56,69.89 -17.04,10.81 -31.94,27.38 -46.85,38.91 -59.63,42.51 -149.08,180.86 -166.11,249.31 -2.13,12.25 -6.39,17.29 -10.65,28.82l-14.91 67.73c-2.13,11.53 -2.13,25.22 -4.26,38.91 -10.65,69.89 -8.52,85.74 0,152.03 2.13,23.78 2.13,51.88 8.52,74.22 8.52,30.98 27.69,99.44 40.46,124.65 80.93,147.71 144.82,216.89 291.77,291.82l91.57 31.7c57.5,10.81 36.21,12.97 108.62,18.01 72.41,5.04 80.93,2.16 157.6,-3.61 8.52,-0.72 25.56,-4.32 34.08,-7.2 23.42,-7.93 59.63,-10.81 95.84,-29.54 44.72,-22.34 51.11,-18.01 108.61,-56.93 31.95,-21.62 63.89,-47.55 91.58,-74.94 19.17,-19.46 72.41,-70.61 72.41,-96.55z"/>
   <path class="fil0" d="M5939.71 1844.56l2.13 15.13c19.17,6.49 215.1,1.44 253.43,1.44 2.13,-7.92 2.13,-10.09 2.13,-19.45l0 -1750.2c0,-9.37 0,-11.53 -2.13,-19.46l-255.56 0 0 1772.54z"/>
  </g>
 </g>
</svg>
