<?xml version="1.0" encoding="UTF-8"?>
<svg id="Layer_2" xmlns="http://www.w3.org/2000/svg" version="1.1" viewBox="0 0 11.4 11">
  <!-- Generator: Adobe Illustrator 29.5.1, SVG Export Plug-In . SVG Version: 2.1.0 Build 141)  -->
  <defs>
    <style>
      .st0 {
        fill: #e0e1e1;
      }
    </style>
  </defs>
  <g id="Layer_1-2">
    <path class="st0" d="M1.5,11c-.4,0-.8-.1-1.1-.4-.3-.3-.4-.7-.4-1.1s0-.2,0-.4c0-.1,0-.2.2-.4L3.7,3.6c0-.1.2-.3.2-.5,0-.2,0-.3,0-.5V.9h-.3c-.2,0-.5-.2-.5-.4h0c0-.3.2-.5.4-.5h4c.2,0,.4.2.5.4h0c0,.3-.2.5-.4.5h-.3v1.7c0,.2,0,.3,0,.5,0,.2.1.3.2.5l3.5,5.2c.1.2.2.5.2.7,0,.4-.1.8-.4,1.1-.3.3-.6.4-1.1.4H1.5ZM4.9.9v1.7c0,.3,0,.5-.1.8s-.2.5-.3.7l-2,2.9c0,0,0,.1-.1.2,0,0,0,.2,0,.2,0,.2,0,.4.3.6s.4.3.6.3.6,0,.9-.2c.3-.1.7-.4,1.2-.7.7-.5,1.2-.8,1.6-1,.3-.2.7-.3,1.1-.4,0,0,0,0,0,0s0,0,0-.1l-1.2-1.8c-.2-.2-.3-.5-.3-.7s-.1-.5-.1-.8V.9h-1.5Z"/>
  </g>
</svg>