<?xml version="1.0" encoding="UTF-8"?>
<svg id="Capa_1" xmlns="http://www.w3.org/2000/svg" version="1.1" viewBox="0 0 150 150">
  <!-- Generator: Adobe Illustrator 29.5.1, SVG Export Plug-In . SVG Version: 2.1.0 Build 141)  -->
  <defs>
    <style>
      .st0 {
        fill: #e8e8e8;
      }
    </style>
  </defs>
  <path class="st0" d="M94.3,43.6c6.6,0,12.1,5.4,12.1,12.1v9.7h12.1v-9.7c0-13.3-10.8-24.2-24.2-24.2h-9.7v12.1s9.7,0,9.7,0Z"/>
  <path class="st0" d="M43.6,55.7c0-6.6,5.4-12.1,12.1-12.1h9.7v-12.1h-9.7c-13.3,0-24.2,10.8-24.2,24.2v9.7h12.1s0-9.7,0-9.7Z"/>
  <path class="st0" d="M55.7,106.4c-6.6,0-12.1-5.4-12.1-12.1v-9.7h-12.1v9.7c0,13.3,10.8,24.2,24.2,24.2h9.7v-12.1h-9.7Z"/>
  <circle class="st0" cx="75" cy="75" r="16.9"/>
  <circle class="st0" cx="104" cy="104" r="9.7"/>
  <path class="st0" d="M95.7,43.7h-41.5c3.7-7.3,7.4-14.6,11.1-22h19.2c3.7,7.3,7.4,14.6,11.1,22Z"/>
</svg>